<?xml version="1.0" encoding="UTF-8"?>
<svg width="12889px" height="4451px" viewBox="0 0 12889 4451" version="1.1" xmlns="http://www.w3.org/2000/svg" xmlns:xlink="http://www.w3.org/1999/xlink">
    <title>logo</title>
    <defs>
        <filter x="-3.1%" y="-3.5%" width="104.6%" height="111.3%" filterUnits="objectBoundingBox" id="filter-1">
            <feOffset dx="-82" dy="97" in="SourceAlpha" result="shadowOffsetOuter1"></feOffset>
            <feColorMatrix values="0 0 0 0 0.2   0 0 0 0 0.2   0 0 0 0 0.2  0 0 0 1 0" type="matrix" in="shadowOffsetOuter1" result="shadowMatrixOuter1"></feColorMatrix>
            <feMerge>
                <feMergeNode in="shadowMatrixOuter1"></feMergeNode>
                <feMergeNode in="SourceGraphic"></feMergeNode>
            </feMerge>
        </filter>
        <linearGradient x1="79.8860948%" y1="50%" x2="50%" y2="100%" id="linearGradient-2">
            <stop stop-color="#FF00B2" offset="0%"></stop>
            <stop stop-color="#CB00FF" offset="100%"></stop>
        </linearGradient>
        <linearGradient x1="82.0847531%" y1="50%" x2="50%" y2="100%" id="linearGradient-3">
            <stop stop-color="#FF00B2" offset="0%"></stop>
            <stop stop-color="#CB00FF" offset="100%"></stop>
        </linearGradient>
        <linearGradient x1="79.1686665%" y1="50%" x2="50%" y2="100%" id="linearGradient-4">
            <stop stop-color="#FF00B2" offset="0%"></stop>
            <stop stop-color="#CB00FF" offset="100%"></stop>
        </linearGradient>
        <linearGradient x1="72.3466014%" y1="50%" x2="50%" y2="100%" id="linearGradient-5">
            <stop stop-color="#FF00B2" offset="0%"></stop>
            <stop stop-color="#CB00FF" offset="100%"></stop>
        </linearGradient>
        <filter x="-1.3%" y="-2.4%" width="101.9%" height="107.8%" filterUnits="objectBoundingBox" id="filter-6">
            <feOffset dx="-82" dy="97" in="SourceAlpha" result="shadowOffsetOuter1"></feOffset>
            <feColorMatrix values="0 0 0 0 0.2   0 0 0 0 0.2   0 0 0 0 0.2  0 0 0 1 0" type="matrix" in="shadowOffsetOuter1" result="shadowMatrixOuter1"></feColorMatrix>
            <feMerge>
                <feMergeNode in="shadowMatrixOuter1"></feMergeNode>
                <feMergeNode in="SourceGraphic"></feMergeNode>
            </feMerge>
        </filter>
        <linearGradient x1="86.7598572%" y1="50%" x2="50%" y2="100%" id="linearGradient-7">
            <stop stop-color="#42C109" offset="0%"></stop>
            <stop stop-color="#76DD60" offset="100%"></stop>
        </linearGradient>
        <linearGradient x1="87.7300575%" y1="50%" x2="50%" y2="100%" id="linearGradient-8">
            <stop stop-color="#42C109" offset="0%"></stop>
            <stop stop-color="#76DD60" offset="100%"></stop>
        </linearGradient>
        <linearGradient x1="89.5996108%" y1="50%" x2="50%" y2="100%" id="linearGradient-9">
            <stop stop-color="#42C109" offset="0%"></stop>
            <stop stop-color="#76DD60" offset="100%"></stop>
        </linearGradient>
        <linearGradient x1="89.83188%" y1="50%" x2="50%" y2="100%" id="linearGradient-10">
            <stop stop-color="#42C109" offset="0%"></stop>
            <stop stop-color="#76DD60" offset="100%"></stop>
        </linearGradient>
        <linearGradient x1="87.7486135%" y1="50%" x2="50%" y2="100%" id="linearGradient-11">
            <stop stop-color="#42C109" offset="0%"></stop>
            <stop stop-color="#76DD60" offset="100%"></stop>
        </linearGradient>
        <linearGradient x1="86.0688676%" y1="50%" x2="50%" y2="100%" id="linearGradient-12">
            <stop stop-color="#42C109" offset="0%"></stop>
            <stop stop-color="#76DD60" offset="100%"></stop>
        </linearGradient>
        <linearGradient x1="77.5064607%" y1="50%" x2="50%" y2="100%" id="linearGradient-13">
            <stop stop-color="#42C109" offset="0%"></stop>
            <stop stop-color="#76DD60" offset="100%"></stop>
        </linearGradient>
    </defs>
    <g id="logo" stroke="none" stroke-width="1" fill="none" fill-rule="evenodd">
        <g id="Group-3" transform="translate(155, 69.9999)" fill-rule="nonzero" stroke-width="65.056">
            <g id="CODE-Copy-4" filter="url(#filter-1)" transform="translate(0, 0)" stroke="#050505">
                <path d="M173.675868,2246.69397 L57.4342928,2148.0949 C21.0029803,2117.19294 2.84217094e-13,2071.83663 2.84217094e-13,2024.06455 L-1.70530257e-13,1058.6507 C-1.70530257e-13,1019.16989 14.361137,981.037024 40.4048387,951.364473 L190.811057,780.001116 C216.138035,751.145155 250.856981,732.179671 288.823056,726.461328 L850.672776,641.837105 C896.946703,634.867456 943.980496,648.167344 979.752338,678.337321 L1096.83785,777.087258 C1133.47819,807.98973 1154.62145,853.481049 1154.62145,901.413059 L1154.62145,1042.66213 C1154.62145,1123.13112 1095.7761,1191.50332 1016.20461,1203.48815 L996.61474,1206.43872 C921.509336,1217.75089 851.454055,1166.03625 840.14189,1090.93084 C839.120749,1084.15113 838.608034,1077.30454 838.608034,1070.44836 L838.608034,1025.01049 L838.608034,1025.01049 L770.492068,967.23279 L384.129379,1025.42565 L316.013413,1103.72222 L316.013413,1897.86055 L384.129379,1955.63825 L770.492068,1897.44539 L838.608034,1819.14882 L838.608034,1753.90012 C838.608034,1673.43113 897.453381,1605.05894 977.024872,1593.07411 L996.61474,1590.12354 C1071.72014,1578.81137 1141.77543,1630.52601 1153.08759,1705.63141 C1154.10873,1712.41113 1154.62145,1719.25772 1154.62145,1726.1139 L1154.62145,1864.43373 C1154.62145,1903.78578 1140.35365,1941.80326 1114.46296,1971.43864 L962.730403,2145.11696 C937.38525,2174.12789 902.565264,2193.20058 864.472056,2198.93807 L303.104737,2283.48963 C256.672966,2290.48306 209.484434,2277.06771 173.675868,2246.69397 Z" id="Shape" fill="url(#linearGradient-2)"></path>
                <path d="M1572.61744,2036.10224 L1456.10297,1937.45421 C1419.60395,1906.55198 1398.55556,1861.15191 1398.55556,1813.32799 L1398.55556,847.660182 C1398.55556,808.386994 1412.76634,770.440235 1438.56347,740.827882 L1589.66921,567.374596 C1615.02522,538.268601 1649.90705,519.130101 1688.07814,513.380878 L2298.58619,421.427875 C2344.9668,414.442159 2392.10518,427.820028 2427.90194,458.127672 L2544.41641,556.775694 C2580.91543,587.677924 2601.96382,633.078001 2601.96382,680.901915 L2601.96382,1646.56972 C2601.96382,1685.84291 2587.75304,1723.78967 2561.95591,1753.40202 L2410.85016,1926.85531 C2385.49416,1955.96131 2350.61233,1975.09981 2312.44124,1980.84903 L1701.93319,2072.80203 C1655.55258,2079.78775 1608.4142,2066.40988 1572.61744,2036.10224 Z M1783.28831,1744.90087 L2217.23107,1679.54164 L2285.45403,1601.22895 L2285.45403,807.090618 L2217.23107,749.329035 L1783.28831,814.688272 L1715.06535,893.000954 L1715.06535,1687.13929 L1783.28831,1744.90087 Z" id="Shape" fill="url(#linearGradient-3)"></path>
                <path d="M2862.16021,1709.08108 L2862.16021,476.522008 C2862.16021,396.053017 2921.00555,327.680824 3000.57704,315.69599 L3714.51186,208.165138 C3761.10093,201.148024 3808.44356,214.678905 3844.28789,245.256105 L3959.69452,343.704361 C3995.91792,374.604933 4016.78165,419.826596 4016.78165,467.439412 L4016.78165,1433.72882 C4016.78165,1472.84798 4002.6819,1510.65653 3977.06719,1540.22333 L3827.17849,1713.23834 C3801.80188,1742.5303 3766.79939,1761.7977 3728.47611,1767.56984 L3049.02337,1869.9071 C2960.20161,1883.28519 2877.35227,1822.126 2863.97419,1733.30425 C2862.76656,1725.28637 2862.16021,1717.1894 2862.16021,1709.08108 Z M3176.65286,1535.03623 L3635.61211,1465.90908 L3703.40028,1387.66188 L3703.40028,593.523547 L3635.61211,535.696477 L3176.65286,604.823627 L3176.65286,1535.03623 Z" id="Shape" fill="url(#linearGradient-4)"></path>
                <path d="M4293.24031,1498.84759 L4293.24031,269.86722 C4293.24031,189.39823 4352.08566,121.026036 4431.65715,109.041202 L5145.43772,1.53358291 C5219.61949,-9.63946703 5288.81325,41.4391963 5299.9863,115.620971 C5300.99488,122.31731 5301.50129,129.079698 5301.50129,135.851567 L5301.50129,151.913052 C5301.50129,233.156182 5241.54877,301.938045 5161.06639,313.0301 L4606.7984,389.419134 L4606.7984,389.419134 L4606.7984,689.451735 L5068.67147,626.527448 C5144.06892,616.255511 5213.51768,669.050174 5223.78962,744.44763 C5224.6294,750.611712 5225.05073,756.825593 5225.05073,763.046617 L5225.05073,778.885667 C5225.05073,860.224842 5164.96021,929.057021 5084.36554,940.037012 L4606.7984,1005.09942 L4606.7984,1005.09942 L4606.7984,1319.63173 L5145.15531,1245.43556 C5220.41862,1235.06279 5289.84038,1287.66698 5300.21315,1362.93029 C5301.0709,1369.15405 5301.50129,1375.42926 5301.50129,1381.71185 L5301.50129,1398.95332 C5301.50129,1479.68524 5242.28093,1548.19739 5162.39894,1559.8811 L4479.41795,1659.77537 C4390.54,1672.77485 4307.95202,1611.26319 4294.95253,1522.38524 C4293.81256,1514.59117 4293.24031,1506.72459 4293.24031,1498.84759 Z" id="Shape" fill="url(#linearGradient-5)"></path>
            </g>
            <g id="CRUSADERS-Copy-4" filter="url(#filter-6)" transform="translate(0, 833.4247)" stroke="#000000">
                <path d="M173.90653,3284.71909 L57.1457362,3185.21114 C20.8872277,3154.31027 -4.8316906e-13,3109.06584 -4.26325641e-13,3061.42612 L-2.55795385e-13,2095.24394 C-2.55795385e-13,2056.0882 14.1260724,2018.24683 39.7840527,1988.66915 L190.482241,1814.94918 C215.997957,1785.5355 251.219746,1766.25232 289.746546,1760.6041 L850.783963,1678.35326 C896.995885,1671.57837 943.890111,1684.99759 979.52263,1715.19303 L1097.12847,1814.85368 C1133.59491,1845.75579 1154.62145,1891.13481 1154.62145,1938.93379 L1154.62145,2082.92472 C1154.62145,2163.31437 1095.88906,2231.64417 1016.4115,2243.71945 L996.61474,2246.72723 C921.606997,2258.12339 851.562791,2206.55602 840.166629,2131.54827 C839.129043,2124.71905 838.608034,2117.82129 838.608034,2110.91369 L838.608034,2065.50692 L838.608034,2065.50692 L770.492068,2007.45593 L384.129379,2064.09859 L316.013413,2142.12186 L316.013413,2936.26019 L384.129379,2994.31119 L770.492068,2937.66853 L838.608034,2859.64526 L838.608034,2794.9532 C838.608034,2714.24199 897.798817,2645.74084 977.656391,2634.03333 L996.61474,2631.25394 C1072.01881,2620.19933 1142.10741,2672.36488 1153.16202,2747.76894 C1154.13368,2754.39672 1154.62145,2761.08646 1154.62145,2767.78508 L1154.62145,2906.0366 C1154.62145,2945.48611 1140.28303,2983.59093 1114.27656,3013.25449 L962.941515,3185.87061 C937.465339,3214.9293 902.474417,3233.96695 864.238047,3239.57259 L302.992436,3321.85395 C256.623228,3328.6519 209.575296,3315.11736 173.90653,3284.71909 Z" id="Shape" fill="url(#linearGradient-7)"></path>
                <path d="M1414.81783,3000.03658 L1414.81783,1737.88162 C1414.81783,1657.17042 1474.00861,1588.66927 1553.86619,1576.96176 L2299.92577,1467.58576 C2346.47399,1460.76156 2393.69673,1474.42792 2429.40574,1505.05753 L2545.21215,1604.39116 C2581.23449,1635.28953 2601.96382,1680.38066 2601.96382,1727.83926 L2601.96382,2072.90888 C2601.96382,2114.17734 2586.27575,2153.90263 2558.07834,2184.03554 L2466.48037,2281.92089 L2466.48037,2281.92089 L2551.23735,2362.29703 C2583.62249,2393.00828 2601.96382,2435.67871 2601.96382,2480.3103 L2601.96382,2844.27876 C2601.96382,2924.98997 2542.77304,2993.49112 2462.91547,3005.19863 L2444.82523,3007.85075 C2369.83544,3018.84462 2300.13192,2966.96568 2289.13805,2891.9759 C2288.17172,2885.38453 2287.68663,2878.73155 2287.68663,2872.06973 L2287.68663,2642.78148 C2287.68663,2595.32288 2266.9573,2550.23176 2230.93496,2519.33338 L2176.63462,2472.75695 L2176.63462,2472.75695 L1729.09502,2538.36845 L1729.09502,2972.24561 C1729.09502,3052.95682 1669.90424,3121.45797 1590.04666,3133.16548 L1571.95642,3135.8176 C1496.96664,3146.81147 1427.26311,3094.93253 1416.26924,3019.94275 C1415.30292,3013.35138 1414.81783,3006.6984 1414.81783,3000.03658 Z M1729.09502,2222.72077 L2219.94491,2150.75977 L2287.68663,2071.67601 L2287.68663,1853.06489 L2219.94491,1794.95903 L1729.09502,1866.92003 L1729.09502,2222.72077 Z" id="Shape" fill="url(#linearGradient-8)"></path>
                <path d="M9952.51163,1747.57707 L9952.51163,485.422113 C9952.51163,404.710912 10011.7024,336.209757 10091.56,324.502245 L10837.6196,215.126249 C10884.1678,208.302052 10931.3905,221.968413 10967.0995,252.598023 L11082.9059,351.931651 C11118.9283,382.830022 11139.6576,427.921151 11139.6576,475.379745 L11139.6576,820.449368 C11139.6576,861.717834 11123.9695,901.443122 11095.7721,931.576032 L11004.1742,1029.46138 L11004.1742,1029.46138 L11088.9311,1109.83751 C11121.3163,1140.54877 11139.6576,1183.2192 11139.6576,1227.85079 L11139.6576,1591.81925 C11139.6576,1672.53045 11080.4668,1741.03161 11000.6093,1752.73912 L10982.519,1755.39124 C10907.5292,1766.38511 10837.8257,1714.50617 10826.8318,1639.51638 C10825.8655,1632.92502 10825.3804,1626.27204 10825.3804,1619.61022 L10825.3804,1390.32197 C10825.3804,1342.86337 10804.6511,1297.77224 10768.6288,1266.87387 L10714.3284,1220.29744 L10714.3284,1220.29744 L10266.7888,1285.90894 L10266.7888,1719.7861 C10266.7888,1800.4973 10207.598,1868.99846 10127.7405,1880.70597 L10109.6502,1883.35809 C10034.6604,1894.35196 9964.95691,1842.47302 9953.96304,1767.48323 C9952.99671,1760.89187 9952.51163,1754.23889 9952.51163,1747.57707 Z M10266.7888,970.261262 L10757.6387,898.30026 L10825.3804,819.216495 L10825.3804,600.60538 L10757.6387,542.499517 L10266.7888,614.460519 L10266.7888,970.261262 Z" id="Shape-Copy" fill="url(#linearGradient-8)"></path>
                <path d="M3034.78222,2864.92478 L2918.93807,2765.58926 C2882.9002,2734.68705 2862.16294,2689.58174 2862.16768,2642.10886 L2862.27929,1525.67993 C2862.28735,1444.9749 2921.47617,1376.48294 3001.32764,1364.77632 L3019.4731,1362.11611 C3094.47396,1351.12061 3164.18779,1403.00722 3175.18328,1478.00808 C3176.1505,1484.60554 3176.63566,1491.26472 3176.63491,1497.9327 L3176.51974,2516.89593 L3176.51974,2516.89593 L3244.27921,2574.99919 L3699.71175,2508.23055 L3767.47122,2430.25954 L3767.47122,1392.97109 C3767.47122,1312.25989 3826.662,1243.75874 3906.51958,1232.05122 L3924.65098,1229.39307 C3999.66042,1218.39632 4069.3822,1270.28885 4080.37896,1345.29828 C4081.34554,1351.89138 4081.83075,1358.5461 4081.83075,1365.20966 L4081.83075,2477.29769 C4081.83075,2516.50311 4067.66887,2554.38907 4041.95206,2583.98148 L3892.53899,2755.91149 C3867.02976,2785.26503 3831.84698,2804.50656 3793.36932,2810.14757 L3164.24347,2902.38051 C3117.70377,2909.20345 3070.48933,2895.54338 3034.78222,2864.92478 Z" id="Shape" fill="url(#linearGradient-9)"></path>
                <path d="M4500.97512,2649.47714 L4383.29023,2549.80228 C4346.8044,2518.9001 4325.76486,2473.50855 4325.76486,2425.69473 L4325.76486,2361.27524 C4325.76486,2280.89437 4384.52125,2212.58589 4463.99871,2200.56856 L4516.49675,2192.63063 C4576.80917,2183.51114 4633.09485,2225.0112 4642.21435,2285.32362 C4643.04072,2290.78891 4643.45566,2296.30852 4643.45566,2301.83593 L4643.45566,2301.83593 L4643.45566,2301.83593 L4711.93318,2359.83392 L5143.0048,2296.6367 L5211.48232,2218.56043 L5211.48232,2046.79455 L5143.0048,1988.79656 L4636.44755,2063.24444 C4590.23273,2070.03655 4543.32854,2056.63013 4507.68404,2026.44053 L4390.02573,1926.78818 C4353.53989,1895.886 4332.50035,1850.49445 4332.50035,1802.68063 L4332.50035,1460.79332 C4332.50035,1421.33289 4346.84669,1383.21829 4372.86615,1353.55159 L4524.40981,1180.76549 C4549.81048,1151.80431 4584.66632,1132.79923 4622.7696,1127.135 L5203.7547,1040.76883 C5250.05086,1033.88669 5297.06779,1047.28338 5332.78373,1077.53349 L5450.31869,1177.08136 C5486.80452,1207.98355 5507.84406,1253.3751 5507.84406,1301.18892 L5507.84406,1366.88619 C5507.84406,1447.35974 5448.99222,1515.73436 5369.41534,1527.714 L5315.88786,1535.77211 C5256.1179,1544.76998 5200.37057,1503.61107 5191.37271,1443.84112 C5190.56088,1438.44839 5190.15326,1433.00253 5190.15326,1427.54904 L5190.15326,1427.54904 L5190.15326,1427.54904 L5121.67574,1369.55105 L4718.66868,1428.63386 L4649.06857,1506.87471 L4649.06857,1677.52522 L4718.66868,1735.35864 L5225.07455,1660.02367 C5271.37598,1653.13569 5318.40022,1666.53174 5354.12079,1696.78578 L5471.64775,1796.32687 C5508.13358,1827.22906 5529.17313,1872.62061 5529.17313,1920.43443 L5529.17313,2325.90547 L5529.17313,2325.90547 L5337.34787,2543.58216 C5311.89199,2572.46861 5277.01361,2591.38737 5238.9185,2596.9723 L4629.68139,2686.28945 C4583.48412,2693.0622 4536.60422,2679.6537 4500.97512,2649.47714 Z" id="Shape" fill="url(#linearGradient-10)"></path>
                <path d="M11590.9751,1610.47714 L11473.2902,1510.80228 C11436.8044,1479.9001 11415.7649,1434.50855 11415.7649,1386.69473 L11415.7649,1322.27524 C11415.7649,1241.89437 11474.5213,1173.58589 11553.9987,1161.56856 L11606.4967,1153.63063 C11666.8092,1144.51114 11723.0949,1186.0112 11732.2143,1246.32362 C11733.0407,1251.78891 11733.4557,1257.30852 11733.4557,1262.83593 L11733.4557,1262.83593 L11733.4557,1262.83593 L11801.9332,1320.83392 L12233.0048,1257.6367 L12301.4823,1179.56043 L12301.4823,1007.79455 L12233.0048,949.796563 L11726.4476,1024.24444 C11680.2327,1031.03655 11633.3285,1017.63013 11597.684,987.440529 L11480.0257,887.788185 C11443.5399,856.885999 11422.5004,811.494447 11422.5004,763.680629 L11422.5004,421.793321 C11422.5004,382.332894 11436.8467,344.218293 11462.8661,314.551592 L11614.4098,141.765487 C11639.8105,112.804312 11674.6663,93.7992314 11712.7696,88.1349991 L12293.7547,1.76883089 C12340.0509,-5.11331124 12387.0678,8.28337507 12422.7837,38.5334925 L12540.3187,138.08136 C12576.8045,168.983546 12597.8441,214.375097 12597.8441,262.188916 L12597.8441,327.88619 C12597.8441,408.359737 12538.9922,476.734363 12459.4153,488.713997 L12405.8879,496.772112 C12346.1179,505.769978 12290.3706,464.611071 12281.3727,404.841119 C12280.5609,399.448394 12280.1533,394.002531 12280.1533,388.549041 L12280.1533,388.549041 L12280.1533,388.549041 L12211.6757,330.551049 L11808.6687,389.633862 L11739.0686,467.874712 L11739.0686,638.525224 L11808.6687,696.35864 L12315.0746,621.023675 C12361.376,614.135689 12408.4002,627.53174 12444.1208,657.785778 L12561.6478,757.326873 C12598.1336,788.229059 12619.1731,833.620611 12619.1731,881.434429 L12619.1731,1286.90547 L12619.1731,1286.90547 L12427.3479,1504.58216 C12401.892,1533.46861 12367.0136,1552.38737 12328.9185,1557.9723 L11719.6814,1647.28945 C11673.4841,1654.0622 11626.6042,1640.6537 11590.9751,1610.47714 Z" id="Shape" fill="url(#linearGradient-10)"></path>
                <path d="M6801.41881,863.358888 L6919.02315,963.01927 C6955.48922,993.921384 6976.5155,1039.30016 6976.5155,1087.09885 L6976.5155,2202.94802 C6976.5155,2283.65922 6917.32472,2352.16038 6837.46715,2363.86789 L6818.30418,2366.67728 C6742.80246,2377.7462 6672.62309,2325.5131 6661.55417,2250.01138 C6660.58125,2243.37502 6660.09285,2236.67662 6660.09285,2229.96933 L6660.09285,1930.34235 L6105.79217,2011.60555 L6105.79217,2330.60034 C6105.79217,2411.31154 6046.60138,2479.81269 5966.74381,2491.5202 L5947.58084,2494.32959 C5872.07912,2505.39851 5801.89975,2453.16541 5790.83083,2377.6637 C5789.85791,2371.02734 5789.36951,2364.32894 5789.36951,2357.62164 L5789.36951,1246.98019 C5789.36951,1207.53089 5803.70777,1169.42626 5829.714,1139.76276 L5981.04739,967.147231 C6006.5236,938.088286 6041.51468,919.050466 6079.75126,913.444796 L6672.67953,826.518602 C6718.89173,819.743666 6765.78623,833.163088 6801.41881,863.358888 Z M6591.64681,1154.04608 L6174.2382,1215.24023 L6105.79217,1293.31188 L6105.79217,1697.07323 L6660.09285,1615.81003 L6660.09285,1212.04868 L6591.64681,1154.04608 Z" id="Shape" fill="url(#linearGradient-11)"></path>
                <path d="M7236.71189,2119.62705 L7236.71189,886.876122 C7236.71189,806.164921 7295.90267,737.663766 7375.76024,725.956254 L8089.17696,621.365863 C8135.7029,614.544931 8182.90391,628.194857 8218.60796,658.795655 L8334.5327,758.151004 C8370.58439,789.049748 8391.33333,834.159957 8391.33333,881.64108 L8391.33333,1847.99925 C8391.33333,1887.21491 8377.16407,1925.11006 8351.43513,1954.70549 L8201.94189,2126.6642 C8176.434,2156.00535 8141.25927,2175.2383 8102.79174,2180.87783 L7422.94353,2280.54691 C7334.06994,2293.57622 7251.46132,2232.09228 7238.43202,2143.21869 C7237.28678,2135.40698 7236.71189,2127.52225 7236.71189,2119.62705 Z M7551.20454,1943.5828 L8010.16379,1876.29713 L8077.95196,1798.32192 L8077.95196,1004.18358 L8010.16379,946.084527 L7551.20454,1013.3702 L7551.20454,1943.5828 Z" id="Shape" fill="url(#linearGradient-12)"></path>
                <path d="M8667.79199,1907.31095 L8667.79199,674.314547 C8667.79199,593.603346 8726.98277,525.102191 8806.84035,513.394679 L9519.89833,408.856881 C9594.41855,397.93185 9663.68562,449.485941 9674.61065,524.006166 C9675.57092,530.556256 9676.05297,537.167577 9676.05297,543.787684 L9676.05297,561.12595 C9676.05297,641.815803 9616.89267,710.305619 9537.06027,722.037649 L8981.35008,803.703852 L8981.35008,803.703852 L8981.35008,1103.73645 L9443.44777,1035.99066 C9517.96799,1025.06563 9587.23506,1076.61972 9598.16009,1151.13995 C9599.12036,1157.69004 9599.60241,1164.30136 9599.60241,1170.92147 L9599.60241,1188.21061 C9599.60241,1268.92181 9540.41163,1337.42297 9460.55406,1349.13048 L8981.35008,1419.38413 L8981.35008,1419.38413 L8981.35008,1733.91645 L9519.89833,1654.96264 C9594.41855,1644.0376 9663.68562,1695.5917 9674.61065,1770.11192 C9675.57092,1776.66201 9676.05297,1783.27333 9676.05297,1789.89344 L9676.05297,1807.18258 C9676.05297,1887.89378 9616.86219,1956.39494 9537.00461,1968.10245 L8854.02363,2068.23081 C8765.15004,2081.26012 8682.54143,2019.77618 8669.51212,1930.90259 C8668.36689,1923.09088 8667.79199,1915.20615 8667.79199,1907.31095 Z" id="Shape" fill="url(#linearGradient-13)"></path>
            </g>
        </g>
    </g>
</svg>